# xmcd CD database file
#
# Track frame offsets:
#	150
#	27655
#	39632
#	61680
#	93480
#	111567
#	128012
#	146980
#	167210
#
# Disc length: 2574 seconds
#
# Revision: 2
# Processed by: cddbd v1.5.2PL0 Copyright (c) Steve Scherf et al.
# Submitted via: CDex 1.51
#
DISCID=840a0c09
DTITLE=Cal Tjader - TJADER
DYEAR=1971
DGENRE=Jazz
TTITLE0=I Showed Them
TTITLE1=Wear Your Love LIKE Heaven
TTITLE2=First There Is a Mountain
TTITLE3=What Are You Doing The Rest of Your Life?
TTITLE4=Fresh Air
TTITLE5=You Keep Me Hangin' on
TTITLE6=She's Leaving Home
TTITLE7=Evil Ways
TTITLE8=Mambero
EXTD=YEAR: 1971
EXTT0=
EXTT1=
EXTT2=
EXTT3=
EXTT4=
EXTT5=
EXTT6=
EXTT7=
EXTT8=
PLAYORDER=
